<?xml version="1.0"?>
<svg xmlns="http://www.w3.org/2000/svg" viewBox="0 0 150 33.23">
  <g fill="#2b4287">
    <path d="M29.03,0H4.2C1.88,0,0,1.89,0,4.2v24.83c0,2.32,1.88,4.2,4.2,4.2h24.83c2.32,0,4.2-1.88,4.2-4.2V4.21c0-2.32-1.89-4.21-4.2-4.21ZM16.15,29.79h-5.7C10.38,9.24,1.9,9.96,1.9,9.96V3.46h9.55v.04c0,3.04,2.11,5.5,4.71,5.5v20.79h0ZM31.33,9.96s-8.49-.72-8.56,19.83h-5.7V8.99c2.6,0,4.71-2.46,4.71-5.5v-.04h9.55s0,6.51,0,6.51Z"></path>
    <path d="M40.92,22.81h2.97c2.92,0,5.3,2.12,5.3,4.73s-2.37,4.74-5.3,4.74h-2.97v-9.47ZM43.89,31.26c2.23,0,4.01-1.64,4.01-3.71s-1.78-3.71-4.01-3.71h-1.68v7.43h1.68Z"></path>
    <path d="M59.61,23.83v3.2h3.98v1.03h-3.98v3.2h4.57v1.02h-5.86v-9.47h5.86v1.02h-4.57Z"></path>
    <path d="M72.86,30.58l.93-.85c.42.95,1.65,1.58,3.11,1.58,1.26,0,2.25-.44,2.26-1.5.01-1.22-1.27-1.67-2.61-2.12-1.47-.49-3.01-1.01-3.01-2.54s1.48-2.46,3.26-2.46c1.64,0,2.88.56,3.59,1.31l-.86.78c-.48-.64-1.38-1.1-2.7-1.1-1.07,0-1.99.43-1.99,1.38s1.1,1.34,2.33,1.75c1.54.54,3.29,1.15,3.29,2.93s-1.58,2.66-3.6,2.66c-1.74.01-3.27-.75-4-1.82Z"></path>
    <path d="M89.56,22.81h1.29v9.47h-1.29v-9.47Z"></path>
    <path d="M101.46,27.58c0,2.32,1.88,3.8,4.18,3.8.65,0,1.29-.14,1.86-.39v-2.74h-2.46v-1.03h3.6v4.46c-.88.49-1.92.81-3.02.81-2.95,0-5.37-1.97-5.37-4.9s2.42-4.9,5.34-4.9c1.12,0,2.18.32,3.05.81v1.44c-.73-.72-1.86-1.15-3.01-1.15-2.29-.01-4.17,1.47-4.17,3.79Z"></path>
    <path d="M127,22.81v9.47h-1.23l-6.36-7.62v7.62h-1.29v-9.47h1.23l6.37,7.63v-7.63h1.28Z"></path>
    <path d="M136,30.58l.93-.85c.42.95,1.65,1.58,3.11,1.58,1.26,0,2.25-.44,2.26-1.5,0-1.22-1.27-1.67-2.61-2.12-1.47-.49-3.01-1.01-3.01-2.54s1.48-2.46,3.26-2.46c1.64,0,2.88.56,3.59,1.31l-.86.78c-.48-.64-1.38-1.1-2.7-1.1-1.07,0-1.99.43-1.99,1.38s1.1,1.34,2.33,1.75c1.54.54,3.29,1.15,3.29,2.93s-1.58,2.66-3.6,2.66c-1.74.01-3.27-.75-4-1.82Z"></path>
    <path d="M40.85,1.01h2.33v19.09h-2.33V1.01Z"></path>
    <path d="M66.42,1.01v19.09h-2.31V4.37l-7.41,11.05-7.34-11.02v15.7h-2.33V1.01h2.49l7.21,10.64,7.23-10.64h2.46Z"></path>
    <path d="M82.74,6.38c0,2.98-2.41,5.32-5.41,5.32h-4.72v8.4h-2.33V1.01h7.05c3,0,5.41,2.42,5.41,5.37ZM80.58,6.4c0-1.94-1.56-3.33-3.39-3.33h-4.59v6.69h4.59c1.85,0,3.39-1.35,3.39-3.36Z"></path>
    <path d="M98.31,20.1h-2.62l-4.59-8.53h-3.41v8.53h-2.33V1.01h7.05c2.98,0,5.41,2.39,5.41,5.4,0,2.57-1.9,4.63-4.36,5.04l4.85,8.65ZM92.35,9.66c1.85,0,3.31-1.48,3.31-3.31s-1.49-3.28-3.31-3.28h-4.67v6.59s4.67,0,4.67,0Z"></path>
    <path d="M102.87,3.07v6.44h7.23v2.09h-7.23v6.44h8.31v2.06h-10.65V1.01h10.65v2.06h-8.31Z"></path>
    <path d="M113.59,16.66l1.69-1.7c.77,1.91,3,3.18,5.64,3.18,2.28,0,4.08-.89,4.1-3.03.03-2.47-2.31-3.36-4.75-4.28-2.67-.99-5.46-2.04-5.46-5.12s2.69-4.96,5.93-4.96c2.98,0,5.23,1.12,6.52,2.65l-1.56,1.58c-.87-1.3-2.51-2.21-4.9-2.21-1.95,0-3.62.87-3.62,2.77s2,2.7,4.23,3.54c2.8,1.09,5.98,2.32,5.98,5.91s-2.87,5.37-6.54,5.37c-3.15-.01-5.92-1.53-7.26-3.7Z"></path>
    <path d="M129.73,16.66l1.69-1.7c.77,1.91,3,3.18,5.64,3.18,2.28,0,4.08-.89,4.1-3.03.03-2.47-2.31-3.36-4.75-4.28-2.67-.99-5.46-2.04-5.46-5.12s2.69-4.96,5.93-4.96c2.98,0,5.23,1.12,6.52,2.65l-1.56,1.58c-.87-1.3-2.51-2.21-4.9-2.21-1.95,0-3.62.87-3.62,2.77s2,2.7,4.23,3.54c2.8,1.09,5.98,2.32,5.98,5.91s-2.87,5.37-6.54,5.37c-3.16-.01-5.93-1.53-7.26-3.7Z"></path>
    <path d="M40.85.97h2.33v19.09h-2.33V.97Z"></path>
    <path d="M66.42.97v19.09h-2.31V4.33l-7.41,11.05-7.34-11.02v15.7h-2.33V.97h2.49l7.21,10.64L63.96.97h2.46Z"></path>
    <path d="M82.74,6.34c0,2.98-2.41,5.32-5.41,5.32h-4.72v8.4h-2.33V.97h7.05c3,0,5.41,2.42,5.41,5.37ZM80.58,6.37c0-1.94-1.56-3.33-3.39-3.33h-4.59v6.69h4.59c1.85,0,3.39-1.35,3.39-3.36Z"></path>
    <path d="M98.31,20.06h-2.62l-4.59-8.53h-3.41v8.53h-2.33V.97h7.05c2.98,0,5.41,2.39,5.41,5.4,0,2.57-1.9,4.63-4.36,5.04l4.85,8.65ZM92.35,9.63c1.85,0,3.31-1.48,3.31-3.31s-1.49-3.28-3.31-3.28h-4.67v6.59h4.67Z"></path>
    <path d="M102.87,3.04v6.44h7.23v2.09h-7.23v6.44h8.31v2.06h-10.65V.97h10.65v2.06h-8.31Z"></path>
    <path d="M113.59,16.63l1.69-1.7c.77,1.91,3,3.18,5.64,3.18,2.28,0,4.08-.89,4.1-3.03.03-2.47-2.31-3.36-4.75-4.28-2.67-.99-5.46-2.04-5.46-5.12s2.69-4.96,5.93-4.96c2.98,0,5.23,1.12,6.52,2.65l-1.56,1.58c-.87-1.3-2.51-2.21-4.9-2.21-1.95,0-3.62.87-3.62,2.77s2,2.7,4.23,3.54c2.8,1.09,5.98,2.32,5.98,5.91s-2.87,5.37-6.54,5.37c-3.15-.01-5.92-1.54-7.26-3.7Z"></path>
    <path d="M150,2.58c0,1.13-.92,2.06-2.06,2.06s-2.06-.92-2.06-2.06.92-2.06,2.06-2.06,2.06.92,2.06,2.06ZM149.67,2.58c0-.96-.76-1.73-1.73-1.73s-1.73.76-1.73,1.73.76,1.73,1.73,1.73c.97-.01,1.73-.77,1.73-1.73ZM148.31,2.71l.49.9h-.34l-.48-.86h-.28v.86h-.3V1.54h.69c.34,0,.61.27.61.6-.01.26-.17.48-.39.57ZM147.69,2.45h.38c.17,0,.3-.13.3-.3s-.13-.3-.3-.3h-.38v.6Z"></path>
  </g>
</svg>
